<?xml version="1.0" encoding="utf-8"?>
<!-- Generator: Adobe Illustrator 27.5.0, SVG Export Plug-In . SVG Version: 6.00 Build 0)  -->
<svg version="1.1" xmlns="http://www.w3.org/2000/svg" xmlns:xlink="http://www.w3.org/1999/xlink" x="0px" y="0px"
	 viewBox="0 0 750 500" style="enable-background:new 0 0 750 500;" xml:space="preserve">
<g id="BACKGROUND">
	<rect style="fill:#DBE6F1;" width="750" height="500"/>
</g>
<g id="OBJECTS">
	<g>
		<g>
			<path style="fill:#C6D8E8;" d="M623.276,254.922c-39.317-32.416-91.971-32.741-141.489-65.665
				c-61.31-40.763-125.892-114.483-213.495-83.394c-48.532,17.222-61.788,77.982-63.703,87.678
				c-0.379,1.918-0.775,3.819-1.236,5.717c-3.866,15.892-10.168,68.353-70.768,112.214
				c-69.486,50.292-48.532,112.573-25.065,134.435h480.405C686.354,370.244,673.282,296.151,623.276,254.922z"/>
			<path style="fill:#C6D8E8;" d="M198.289,119.463c-2.923-14.132-14.257-24.611-28.112-27.399
				c-17.636-3.548-46.349-1.383-77.398,33.211c-50.807,56.61-9.364,95.003,24.296,88.513
				C147.298,207.961,207.548,164.227,198.289,119.463z"/>
		</g>
		<g>
			<g>
				<g>
					<g>
						<g>
							<g>
								<g>
									<g>
										<g>
											<path style="fill:#5683FA;" d="M692.816,327.474h-46.558c-4.522,0-8.188-3.666-8.188-8.188v-43.285
												c0-3.428,2.779-6.208,6.208-6.208h48.538c3.428,0,6.208,2.779,6.208,6.208v45.265
												C699.024,324.694,696.245,327.474,692.816,327.474z"/>
										</g>
									</g>
								</g>
							</g>
						</g>
					</g>
					<g>
						<path style="fill:#FFFFFF;" d="M656.945,286.704c-6.372,6.372-6.372,16.831,0,23.203c6.372,6.372,16.831,6.372,23.203,0
							c6.372-6.372,6.372-16.831,0-23.203C673.777,280.332,663.317,280.332,656.945,286.704z M680.111,289.067h-5.229
							c-0.524-1.642-1.2-3.285-2.033-4.927C675.745,285.018,678.266,286.76,680.111,289.067z M662.522,297.346
							c0.003-2.12,0.253-4.241,0.777-6.361h10.495c0.524,2.12,0.774,4.241,0.777,6.361H662.522z M674.507,299.265
							c-0.145,2.12-0.529,4.241-1.127,6.361h-9.666c-0.599-2.12-0.982-4.24-1.127-6.361H674.507z M668.547,283.504
							c0.789,0,1.563,0.062,2.318,0.181c1.005,1.794,1.793,3.588,2.379,5.382h-9.394c0.586-1.794,1.374-3.588,2.379-5.382
							C666.984,283.566,667.758,283.504,668.547,283.504z M664.245,284.139c-0.833,1.643-1.509,3.285-2.033,4.927h-5.229
							C658.828,286.76,661.349,285.018,664.245,284.139z M655.68,290.985h5.989c-0.525,2.12-0.8,4.241-0.839,6.361h-7.053
							C653.924,295.043,654.598,292.883,655.68,290.985z M655.68,305.626c-1.082-1.897-1.756-4.058-1.903-6.361h7.082
							c0.104,2.12,0.44,4.24,0.999,6.361H655.68z M656.983,307.544h5.441c0.542,1.662,1.218,3.325,2.022,4.987
							C661.466,311.674,658.871,309.904,656.983,307.544z M668.547,313.108c-0.657,0-1.305-0.043-1.939-0.126
							c-0.904-1.812-1.674-3.625-2.294-5.437h8.467c-0.62,1.813-1.39,3.625-2.294,5.437
							C669.851,313.065,669.205,313.108,668.547,313.108z M672.648,312.531c0.805-1.662,1.48-3.324,2.022-4.987h5.441
							C678.223,309.904,675.629,311.674,672.648,312.531z M681.414,305.626h-6.178c0.559-2.12,0.896-4.24,0.999-6.361h7.082
							C683.169,301.568,682.496,303.728,681.414,305.626z M683.317,297.346h-7.052c-0.038-2.12-0.314-4.241-0.839-6.361h5.989
							C682.496,292.883,683.169,295.043,683.317,297.346z"/>
					</g>
				</g>
				<g>
					<g>
						<g>
							<path style="fill:#5683FA;" d="M197.542,105.383h-30.287c-5.078,0-9.195-4.117-9.195-9.195V68.16
								c0-5.078,4.117-9.195,9.195-9.195h30.287c5.078,0,9.195,4.117,9.195,9.195v28.028
								C206.737,101.266,202.62,105.383,197.542,105.383z"/>
						</g>
					</g>
					<g>
						
							<line style="fill:none;stroke:#FFFFFF;stroke-width:3.0593;stroke-linecap:round;stroke-linejoin:round;stroke-miterlimit:10;" x1="174.931" y1="75.053" x2="189.867" y2="89.295"/>
						
							<line style="fill:none;stroke:#FFFFFF;stroke-width:3.0593;stroke-linecap:round;stroke-linejoin:round;stroke-miterlimit:10;" x1="189.867" y1="75.053" x2="174.931" y2="89.295"/>
					</g>
				</g>
				<g>
					<circle style="fill:#1F0C07;" cx="618.924" cy="92.866" r="26.025"/>
					<g>
						<path style="fill:#FFFFFF;" d="M611.272,99.959c0.462,0.346,0.693,0.808,0.808,1.386l0.115,1.617
							c0.115,1.039,0.808,1.848,1.848,2.079c3.234,0.808,6.583,0.808,9.816,0c1.039-0.231,1.732-1.155,1.848-2.079l0.115-1.617
							c0-0.577,0.346-1.039,0.808-1.386c2.656-2.079,4.388-5.312,4.388-9.701c0-7.969-5.312-11.087-12.011-11.087
							c-6.583,0-12.011,3.118-12.011,11.087C606.884,94.647,608.616,97.996,611.272,99.959z M624.091,90.027
							c1.963,0.231,2.772,1.617,2.541,3.118c-0.231,1.501-1.039,2.656-3.234,2.425c-2.194-0.231-2.772-1.617-2.541-3.118
							C621.089,90.836,622.128,89.797,624.091,90.027z M617.047,99.497l1.27-3.003c0.231-0.577,1.039-0.577,1.27,0l1.27,3.003
							c0.231,0.577-0.231,1.27-0.808,1.27h-2.079C617.162,100.768,616.7,100.075,617.047,99.497z M613.698,90.027
							c1.963-0.231,3.003,0.924,3.234,2.425c0.231,1.501-0.346,2.887-2.541,3.118c-2.194,0.231-3.003-0.924-3.234-2.425
							C610.926,91.644,611.619,90.258,613.698,90.027z"/>
					</g>
				</g>
				<g>
					<g>
						<path style="fill:#1F0C07;" d="M95.838,304.06H51.734c-4.278,0-7.747-3.468-7.747-7.747v-38.75
							c0-4.278,3.468-7.747,7.747-7.747h44.104c4.278,0,7.747,3.468,7.747,7.747v38.75
							C103.585,300.592,100.116,304.06,95.838,304.06z"/>
					</g>
					<path style="fill:#FFFFFF;" d="M64.689,285.818c0.543,0.407,0.815,0.951,0.951,1.63l0.136,1.902
						c0.136,1.223,0.951,2.173,2.173,2.445c3.803,0.951,7.742,0.951,11.545,0c1.222-0.272,2.037-1.358,2.173-2.445l0.136-1.902
						c0-0.679,0.408-1.223,0.951-1.63c3.124-2.445,5.161-6.248,5.161-11.409c0-9.372-6.248-13.039-14.126-13.039
						c-7.742,0-14.126,3.667-14.126,13.039C59.527,279.57,61.565,283.509,64.689,285.818z M79.765,274.137
						c2.309,0.272,3.26,1.901,2.988,3.667c-0.272,1.766-1.222,3.124-3.803,2.852c-2.581-0.272-3.26-1.902-2.988-3.667
						C76.234,275.088,77.456,273.866,79.765,274.137z M71.48,285.275l1.494-3.531c0.272-0.679,1.222-0.679,1.494,0l1.494,3.531
						c0.272,0.679-0.272,1.494-0.951,1.494h-2.445C71.616,286.769,71.073,285.954,71.48,285.275z M67.541,274.137
						c2.309-0.272,3.532,1.087,3.803,2.852c0.272,1.766-0.408,3.396-2.988,3.667c-2.581,0.272-3.532-1.087-3.803-2.852
						C64.281,276.039,65.096,274.409,67.541,274.137z"/>
				</g>
			</g>
			<g>
				<path style="fill:#FFFFFF;" d="M464.665,56.483c-0.314-1.991-2.183-3.349-4.174-3.035c-1.991,0.315-3.349,2.183-3.035,4.174
					c0.315,1.991,2.183,3.349,4.174,3.035C463.622,60.343,464.98,58.474,464.665,56.483z"/>
				<path style="fill:#FFFFFF;" d="M64.207,341.253c-0.314-1.991-2.183-3.349-4.174-3.035c-1.991,0.315-3.349,2.183-3.035,4.174
					c0.315,1.991,2.183,3.349,4.174,3.035C63.163,345.112,64.522,343.243,64.207,341.253z"/>
				<path style="fill:#FFFFFF;" d="M111.576,63.202c-0.314-1.991-2.183-3.349-4.174-3.035c-1.99,0.315-3.349,2.183-3.035,4.174
					c0.315,1.991,2.183,3.349,4.174,3.035C110.532,67.062,111.89,65.193,111.576,63.202z"/>
				<path style="fill:#7BCCA9;" d="M328.079,66.854H258.03c-1.174,0-2.126-0.952-2.126-2.125l0,0c0-1.174,0.952-2.126,2.126-2.126
					h70.049c1.174,0,2.125,0.952,2.125,2.126l0,0C330.204,65.902,329.253,66.854,328.079,66.854z"/>
				<path style="fill:#5683FA;" d="M105.636,388.249H67.149c-1.174,0-2.125-0.952-2.125-2.125l0,0c0-1.174,0.952-2.125,2.125-2.125
					h38.487c1.174,0,2.125,0.952,2.125,2.125l0,0C107.761,387.297,106.81,388.249,105.636,388.249z"/>
				<path style="fill:#7BCCA9;" d="M688.859,115.638h-6.27c-1.647,0-2.983-1.335-2.983-2.983v-5.885
					c0-1.647,1.336-2.983,2.983-2.983h6.27c1.647,0,2.983,1.335,2.983,2.983v5.885C691.842,114.303,690.506,115.638,688.859,115.638
					z"/>
				<path style="fill:#5683FA;" d="M58.942,117.829h-6.27c-1.647,0-2.983-1.335-2.983-2.983v-5.885c0-1.647,1.335-2.983,2.983-2.983
					h6.27c1.647,0,2.983,1.336,2.983,2.983v5.885C61.925,116.494,60.59,117.829,58.942,117.829z"/>
				
					<path style="fill:none;stroke:#FFFFFF;stroke-width:0.9676;stroke-linecap:round;stroke-linejoin:round;stroke-miterlimit:10;" d="
					M623.4,148.13c0,3.699-2.957,6.698-6.605,6.698c-3.648,0-6.605-2.999-6.605-6.698s2.957-6.698,6.605-6.698
					C620.443,141.432,623.4,144.431,623.4,148.13z"/>
				
					<path style="fill:none;stroke:#FFFFFF;stroke-width:0.9676;stroke-linecap:round;stroke-linejoin:round;stroke-miterlimit:10;" d="
					M66.463,219.536c0,3.819-3.053,6.914-6.819,6.914c-3.766,0-6.818-3.096-6.818-6.914c0-3.819,3.053-6.914,6.818-6.914
					C63.41,212.622,66.463,215.717,66.463,219.536z"/>
				
					<line style="fill:none;stroke:#FFFFFF;stroke-width:0.9676;stroke-linecap:round;stroke-linejoin:round;stroke-miterlimit:10;" x1="432.797" y1="90.497" x2="486.004" y2="90.497"/>
				
					<line style="fill:none;stroke:#FFFFFF;stroke-width:0.9676;stroke-linecap:round;stroke-linejoin:round;stroke-miterlimit:10;" x1="49.066" y1="159.813" x2="83.902" y2="159.813"/>
				
					<line style="fill:none;stroke:#FFFFFF;stroke-width:0.9676;stroke-linecap:round;stroke-linejoin:round;stroke-miterlimit:10;" x1="649.151" y1="357.125" x2="682.735" y2="357.125"/>
			</g>
		</g>
	</g>
	<g>
		<g>
			<g>
				<g>
					<path style="fill:#5683FA;" d="M574.177,396.323H158.314c-5.366,0-9.715-4.35-9.715-9.715V141.493
						c0-5.366,4.35-9.715,9.715-9.715h415.863c5.366,0,9.715,4.35,9.715,9.715v245.115
						C583.892,391.974,579.543,396.323,574.177,396.323z"/>
					<rect x="159.154" y="141.022" style="fill:#FFFFFF;" width="414.182" height="246.056"/>
				</g>
				<g>
					<polygon style="fill:#5683FA;" points="326.09,388.044 318.364,437.892 417.997,437.892 410.677,388.044 					"/>
					<rect x="308.771" y="437.892" style="fill:#4471D8;" width="118.819" height="8.015"/>
					<polygon style="fill:#4471D8;" points="324.807,396.323 411.893,396.323 413.028,404.055 324.317,399.485 					"/>
				</g>
			</g>
			<g>
				<g>
					<path style="fill:#DBE6F1;" d="M538.191,349.793H403.47c-2.942,0-5.327-2.385-5.327-5.327V184.617
						c0-2.942,2.385-5.327,5.327-5.327h134.721c2.942,0,5.327,2.385,5.327,5.327v159.849
						C543.518,347.408,541.133,349.793,538.191,349.793z"/>
					<g>
						<path style="fill:none;stroke:#FFFFFC;stroke-width:4.1872;stroke-miterlimit:10;" d="M493.074,232.705v-13.077
							c0-10.47-8.487-18.957-18.957-18.957l0,0c-7.373,0-13.762,4.209-16.897,10.355"/>
						<g>
							<path style="fill:#EBAE5C;" d="M479.863,288.949h-12.546c-13.584,0-24.596-11.012-24.596-24.596v-32.75
								c0-2.426,1.966-4.392,4.392-4.392h52.954c2.426,0,4.392,1.966,4.392,4.392v32.75
								C504.459,277.937,493.447,288.949,479.863,288.949z"/>
							<g>
								<path d="M480.608,249.544c0,3.981-3.227,7.208-7.208,7.208c-3.981,0-7.208-3.227-7.208-7.208s3.227-7.208,7.208-7.208
									C477.381,242.335,480.608,245.563,480.608,249.544z"/>
								<polygon points="471.264,254.545 465.448,271.24 481.733,271.24 475.506,254.545 								"/>
							</g>
						</g>
					</g>
					<g>
						<path style="fill:#FFFFFF;" d="M509.123,326.792h-74.195c-5.566,0-10.077-4.512-10.077-10.078l0,0
							c0-5.566,4.512-10.077,10.077-10.077h74.195c5.566,0,10.077,4.512,10.077,10.077l0,0
							C519.201,322.28,514.689,326.792,509.123,326.792z"/>
						<g>
							<g>
								<path d="M452.675,313.167l-2.39,3.145v0.051l3.799-0.504v1.711l-3.799-0.453v0.051l2.415,3.018l-1.586,0.908l-1.51-3.524
									h-0.05l-1.635,3.548l-1.434-0.906l2.39-3.071v-0.049l-3.724,0.477v-1.711l3.699,0.477v-0.049l-2.365-3.071l1.535-0.879
									l1.56,3.497h0.05l1.535-3.524L452.675,313.167z"/>
							</g>
							<g>
								<path d="M468.595,313.167l-2.39,3.145v0.051l3.8-0.504v1.711l-3.8-0.453v0.051l2.416,3.018l-1.586,0.908l-1.51-3.524h-0.05
									l-1.635,3.548l-1.434-0.906l2.39-3.071v-0.049l-3.724,0.477v-1.711l3.699,0.477v-0.049l-2.365-3.071l1.535-0.879l1.56,3.497
									h0.05l1.535-3.524L468.595,313.167z"/>
							</g>
							<g>
								<path d="M484.515,313.167l-2.39,3.145v0.051l3.799-0.504v1.711l-3.799-0.453v0.051l2.416,3.018l-1.586,0.908l-1.51-3.524
									h-0.05l-1.635,3.548l-1.434-0.906l2.39-3.071v-0.049l-3.724,0.477v-1.711l3.699,0.477v-0.049l-2.365-3.071l1.535-0.879
									l1.56,3.497h0.05l1.535-3.524L484.515,313.167z"/>
							</g>
							<g>
								<path d="M500.435,313.167l-2.39,3.145v0.051l3.799-0.504v1.711l-3.799-0.453v0.051l2.416,3.018l-1.586,0.908l-1.51-3.524
									h-0.05l-1.635,3.548l-1.434-0.906l2.39-3.071v-0.049l-3.724,0.477v-1.711l3.699,0.477v-0.049l-2.365-3.071l1.535-0.879
									l1.56,3.497h0.05l1.535-3.524L500.435,313.167z"/>
							</g>
						</g>
					</g>
				</g>
				<g>
					
						<ellipse transform="matrix(0.2951 -0.9555 0.9555 0.2951 141.9999 449.4545)" style="fill:#1F0C07;" cx="375.613" cy="128.488" rx="31.237" ry="31.237"/>
					<g>
						<path style="fill:#FFFFFF;" d="M379.642,140.472c0,5.311-8.058,5.311-8.058,0
							C371.583,135.115,379.642,135.115,379.642,140.472z M379.161,113.363l-0.183,19.85h-6.776c0-7.509-0.137-12.295-0.137-19.85
							H379.161z"/>
					</g>
				</g>
				<g>
					<path style="fill:#DBE6F1;" d="M375.404,281.793H188.45c-1.888,0-3.418-1.53-3.418-3.418v-97.53
						c0-1.888,1.53-3.418,3.418-3.418h186.954c1.888,0,3.418,1.53,3.418,3.418v97.53
						C378.822,280.263,377.292,281.793,375.404,281.793z"/>
					<g>
						<polygon style="fill:#1F0C07;" points="342.89,221.942 307.27,193.982 270.599,221.942 						"/>
						<rect x="271.65" y="221.942" style="fill:#CC8938;" width="71.24" height="37.871"/>
						<rect x="282.536" y="192.911" style="fill:#FFFFFF;" width="48.536" height="63.097"/>
						<path style="fill:#EDBA76;" d="M270.599,221.942v46.09h54.496l-44.064-43.422c-1.735-1.71-4.073-2.668-6.509-2.668H270.599z"
							/>
						<path style="fill:#EBAE5C;" d="M342.89,221.942v46.09h-54.496l44.064-43.422c1.735-1.71,4.073-2.668,6.509-2.668H342.89z"/>
						<g>
							
								<line style="fill:none;stroke:#DBE6F1;stroke-width:1.0353;stroke-linecap:round;stroke-linejoin:round;stroke-miterlimit:10;" x1="290.382" y1="202.017" x2="324.158" y2="202.017"/>
							
								<line style="fill:none;stroke:#DBE6F1;stroke-width:1.0353;stroke-linecap:round;stroke-linejoin:round;stroke-miterlimit:10;" x1="290.382" y1="209.344" x2="324.158" y2="209.344"/>
							
								<line style="fill:none;stroke:#DBE6F1;stroke-width:1.0353;stroke-linecap:round;stroke-linejoin:round;stroke-miterlimit:10;" x1="290.382" y1="216.671" x2="324.158" y2="216.671"/>
							
								<line style="fill:none;stroke:#DBE6F1;stroke-width:1.0353;stroke-linecap:round;stroke-linejoin:round;stroke-miterlimit:10;" x1="290.382" y1="223.997" x2="305.982" y2="223.997"/>
						</g>
					</g>
				</g>
				<g>
					<path style="fill:#DBE6F1;" d="M373.567,349.315H190.339c-2.931,0-5.307-2.376-5.307-5.307v-41.039
						c0-2.931,2.376-5.307,5.307-5.307h183.228c2.931,0,5.307,2.376,5.307,5.307v41.039
						C378.874,346.939,376.498,349.315,373.567,349.315z"/>
					<g>
						<path style="fill:#5683FA;" d="M276.811,335.082L276.811,335.082c-6.11,0-11.064-4.953-11.064-11.064l0,0
							c0-6.11,4.953-11.064,11.064-11.064l0,0c6.11,0,11.064,4.953,11.064,11.064l0,0
							C287.874,330.129,282.921,335.082,276.811,335.082z"/>
						<g>
							
								<line style="fill:none;stroke:#FFFFFF;stroke-width:1.4346;stroke-linecap:round;stroke-linejoin:round;stroke-miterlimit:10;" x1="299.553" y1="324.426" x2="361.829" y2="324.426"/>
							
								<line style="fill:none;stroke:#FFFFFF;stroke-width:1.4346;stroke-linecap:round;stroke-linejoin:round;stroke-miterlimit:10;" x1="299.553" y1="316.283" x2="338.747" y2="316.283"/>
							
								<line style="fill:none;stroke:#FFFFFF;stroke-width:1.4346;stroke-linecap:round;stroke-linejoin:round;stroke-miterlimit:10;" x1="299.553" y1="332.725" x2="311.402" y2="332.725"/>
						</g>
					</g>
				</g>
			</g>
		</g>
		<g>
			<g>
				<g>
					<g>
						<g>
							<polygon style="fill:#101010;" points="209.329,423.08 222.404,425.337 242.03,440.639 204.926,433.775 							"/>
							<g>
								<polygon style="fill:#FFFFFF;" points="203.952,438.646 204.926,433.775 242.03,440.639 241.056,445.51 								"/>
							</g>
						</g>
						<polygon style="fill:#EBAE89;" points="227.87,407.297 214.542,404.996 209.329,423.08 222.656,425.381 						"/>
					</g>
					<path style="fill:#1F0C07;" d="M224.096,303.193l21.503,53.802c1.022,2.399,1.269,5.057,0.706,7.604l-15.715,52.682
						l-22.526-4.765l13.397-49.11l-29.36-60.292L224.096,303.193z"/>
				</g>
				<g>
					<g>
						<g>
							<polygon style="fill:#101010;" points="177.332,429.289 190.6,429.141 212.673,440.634 174.939,440.605 							"/>
							<g>
								<polygon style="fill:#FFFFFF;" points="174.863,445.572 174.939,440.605 212.673,440.634 212.597,445.601 								"/>
							</g>
						</g>
						<polygon style="fill:#EBAE89;" points="192.707,410.409 179.183,410.56 177.332,429.289 190.855,429.138 						"/>
					</g>
					<path style="fill:#1F0C07;" d="M183.447,302.215c0,0-3.433,9.922-2.397,25.867l-6.355,91.349h22.668l7.356-67.065l3.26-50.29
						L183.447,302.215z"/>
				</g>
			</g>
			<g>
				<g>
					<path style="fill:#39405F;" d="M200.266,226.976c0,0-5.887,0.333-6.845,6.946C193.422,233.922,200.041,230.958,200.266,226.976
						z"/>
					<path style="fill:#39405F;" d="M201.116,227.184c0,0-4.096-4.241-9.73-0.648C191.385,226.536,197.953,229.613,201.116,227.184z
						"/>
				</g>
				<path style="fill:#D78D67;" d="M215.659,222.045c0.46,2.035,2.482,3.312,4.517,2.853c2.035-0.46,3.312-2.482,2.853-4.517
					c-0.46-2.035-2.482-3.312-4.517-2.853C216.476,217.987,215.199,220.01,215.659,222.045z"/>
				<polygon style="fill:#EBAE89;" points="209.86,230.454 209.531,244.82 197.679,244.483 201.108,220.199 				"/>
				<path style="fill:#EBAE89;" d="M215.093,205.08c3.817,0.511,5.676,4.554,6.054,8.182c0.435,4.178,0.536,9.819-0.763,12.992
					c-2.008,4.904-6.565,8.614-13.013,6.865c0,0-6.969-0.92-8.061-12.302C198.018,207.35,206.972,203.994,215.093,205.08z"/>
				<path style="fill:#1F0C07;" d="M200.938,221.689l-3.066-9.025c1.231-2.781,3.091-2.361,3.091-2.361
					c-0.037-0.186,2.524-1.449,2.489-1.645c8.161-8.259,15.891-0.757,15.891-0.757s-3.032-7.551-15.579-6.556
					c-8.84,0.701-13.445,7.653-13.073,13.422c0.443,6.87,4.933,8.775,9.319,13.246L200.938,221.689z"/>
				<path style="fill:#1F0C07;" d="M202.314,209.871c0,0,2.703-3.749,7.492-2.628c3.886,0.91,10.178,1.796,6.841-1.721
					c0,0-3.047-3.307-9.611-2.189C200.472,204.45,202.314,209.871,202.314,209.871z"/>
				<path style="fill:#1F0C07;" d="M201.533,222.344c0,0,4.282-8.276,0.168-15.446l-4.857,2.848l0.889,9.477L201.533,222.344z"/>
				<g>
					<path style="fill:#EBAE89;" d="M194.313,222.498c0.505,2.235,2.726,3.638,4.961,3.133c2.235-0.505,3.638-2.726,3.133-4.961
						c-0.505-2.235-2.726-3.638-4.961-3.133C195.21,218.042,193.808,220.263,194.313,222.498z"/>
					
						<path style="fill:none;stroke:#1D0006;stroke-width:0.3065;stroke-linecap:round;stroke-linejoin:round;stroke-miterlimit:10;" d="
						M196.58,220.24c0,0,3.097-0.652,3.663,2.745"/>
				</g>
				<g>
					<path style="fill:#1F0C07;" d="M218.924,218.627c0.088,0.469,0.539,0.778,1.008,0.691c0.469-0.088,0.778-0.539,0.691-1.008
						c-0.088-0.469-0.539-0.779-1.008-0.691C219.146,217.707,218.836,218.158,218.924,218.627z"/>
					<path style="fill:#1F0C07;" d="M211.628,218.627c0.088,0.469,0.539,0.778,1.008,0.691c0.469-0.088,0.778-0.539,0.691-1.008
						c-0.088-0.469-0.539-0.779-1.008-0.691C211.849,217.707,211.54,218.158,211.628,218.627z"/>
					
						<path style="fill:none;stroke:#1D0006;stroke-width:0.3065;stroke-linecap:round;stroke-linejoin:round;stroke-miterlimit:10;" d="
						M216.899,219.688l1.288,2.77c0.065,0.266-0.105,0.533-0.374,0.585l-0.913,0.176"/>
					<path style="fill:#1F0C07;" d="M217.72,214.078c0,0,0.546,1.205,1.7,0.599c0.876-0.46,1.421-0.767,2.026-0.884
						c0.344-0.066,0.536-0.399,0.457-0.785l0,0c-0.064-0.312-0.291-0.597-0.584-0.721c-0.594-0.252-1.653-0.532-2.73,0.012
						C217.206,212.995,217.72,214.078,217.72,214.078z"/>
					<path style="fill:#1F0C07;" d="M214.098,214.128c0,0-0.333,1.304-1.858,0.643c-1.158-0.502-2.741-0.773-3.489-0.902
						c-0.425-0.073-0.739-0.434-0.746-0.852l0,0c-0.006-0.338,0.189-0.646,0.504-0.78c0.639-0.271,2.678-0.634,4.096-0.042
						C214.425,212.956,214.098,214.128,214.098,214.128z"/>
				</g>
				<g>
					<path style="fill:#39405F;" d="M200.449,225.169l17.101-3.716l3.71,0.891c0,0-0.341,8.3-4.968,15.377
						C216.291,237.722,206.461,236.114,200.449,225.169z"/>
					<polygon style="fill:#39405F;" points="200.449,225.169 196.922,225.818 200.011,228.015 207.036,227.816 					"/>
				</g>
			</g>
			<g>
				<g>
					<path style="fill:#39405F;" d="M203.76,243.4l17.699,2.274c3.174,0.419,4.701,5.502,4.508,7.45l-1.871,50.069l-40.887-0.101
						l-3.833-48.834c-0.505-3.962,1.892-8.667,5.513-8.76L203.76,243.4z"/>
					<g>
						<path style="fill:#39405F;" d="M222.867,246.222c0,0,13.286,3.46,12.343,36.175l-16.312,0.778l1.558-33.928L222.867,246.222z"
							/>
						<path style="fill:#39405F;" d="M194.21,246.222l1.002-6.064c0.141-0.853,0.986-1.477,1.966-1.452l13.453,0.349
							c1.027,0.027,1.85,0.757,1.872,1.66l1.17,6.232L194.21,246.222z"/>
						<polygon style="fill:#1D1F30;" points="181.078,279.165 189.744,264.699 188.538,279.165 						"/>
						<polygon style="fill:#1D1F30;" points="225.001,279.165 225.001,264.112 228.13,279.165 						"/>
					</g>
				</g>
				<g>
					<g>
						<path style="fill:#7BCCA9;" d="M244.266,355.573h-112.16c-3.66,0-6.626-2.966-6.626-6.626v-63.155
							c0-3.66,2.967-6.626,6.626-6.626h112.16c3.659,0,6.626,2.966,6.626,6.626v63.155
							C250.892,352.606,247.926,355.573,244.266,355.573z"/>
						<g>
							<g>
								<g>
									<circle style="fill:#39405F;" cx="227.909" cy="295.528" r="6.355"/>
									<path style="fill:#FFFFFF;" d="M240.618,295.528c0,3.51-2.845,6.355-6.355,6.355s-6.355-2.845-6.355-6.355
										c0-3.51,2.845-6.355,6.355-6.355S240.618,292.018,240.618,295.528z"/>
								</g>
								<rect x="136.349" y="293.701" style="fill:#FFFFFF;" width="69.556" height="3.261"/>
							</g>
							<g>
								<rect x="136.349" y="330.702" style="fill:#39405F;" width="23.209" height="3.261"/>
								<rect x="163.345" y="330.702" style="fill:#39405F;" width="23.209" height="3.261"/>
								<rect x="190.558" y="330.702" style="fill:#39405F;" width="50.06" height="3.261"/>
								<rect x="136.349" y="339.867" style="fill:#39405F;" width="41.259" height="3.261"/>
								<rect x="181.157" y="339.867" style="fill:#39405F;" width="12.703" height="3.261"/>
							</g>
							<g>
								<path style="fill:#FFFFFF;" d="M155.592,320.24H138.61c-1.249,0-2.262-1.013-2.262-2.262v-9.461
									c0-1.249,1.013-2.262,2.262-2.262h16.981c1.249,0,2.262,1.013,2.262,2.262v9.461
									C157.854,319.227,156.841,320.24,155.592,320.24z"/>
								<path style="fill:#7BCCA9;" d="M147.148,316.952h-13.222v-7.408h13.222c2.042,0,3.704,1.662,3.704,3.704
									C150.852,315.29,149.19,316.952,147.148,316.952z M134.82,316.056h12.327c1.549,0,2.809-1.26,2.809-2.809
									c0-1.549-1.26-2.809-2.809-2.809H134.82V316.056z"/>
								<rect x="150.404" y="312.8" style="fill:#7BCCA9;" width="9.132" height="0.895"/>
							</g>
						</g>
					</g>
					<g>
						<path style="fill:#39405F;" d="M195.674,254.919c0,0-9.679,15.84-19.418,32.4c-1.248,2.122-7.345,3.946-9.805,4.053l0,0
							c-4.945,0.214-7.493-4.912-6.005-9.393c0,0,9.282-23.195,16.339-32.162c1.441-1.831,7.084-5.895,11.407-3.594L195.674,254.919
							z"/>
						<g>
							<g>
								<g>
									<polygon style="fill:#EBAE89;" points="171.46,323.099 171.322,315.124 162.306,315.471 162.465,322.925 									"/>
								</g>
								<g>
									<path style="fill:#EBAE89;" d="M167.123,320.832c0,0,4.212-2.019,6.918,3.202l4.32,7.963
										c0.369,0.714,0.029,1.59-0.724,1.869l0,0c-0.512,0.19-1.087,0.05-1.455-0.353l-3.216-3.407l1.506,11.728
										c0.151,0.88-0.522,1.687-1.415,1.695l0,0c-0.692,0.007-1.292-0.475-1.434-1.152l-1.527-7.834l-0.4-0.064l0.42,8.319
										c-0.033,0.88-0.862,1.511-1.719,1.308l0,0c-0.648-0.154-1.097-0.742-1.075-1.408l-0.848-8.257l-0.484-0.13l-0.466,7.404
										c-0.038,1.872-0.982,1.985-1.615,1.852l0,0c-0.591-0.124-0.728-1.616-0.639-2.213l-0.005-7.905l-0.441-0.137l-0.706,6.971
										c-0.208,0.608-0.923,0.868-1.473,0.537l0,0c-0.393-0.237-0.576-0.71-0.445-1.151l0.524-8.096c0,0-1.082-8.181,2.654-9.757
										L167.123,320.832z"/>
								</g>
							</g>
							<path style="fill:#39405F;" d="M176.533,286.048l-1.74,30.928l-16.405,0.107l1.088-31.285
								c0.025-0.731,0.111-1.466,0.351-2.157c1.307-3.755,5.567-5.801,9.412-4.222l0,0
								C172.234,280.649,176.971,282.84,176.533,286.048z"/>
						</g>
					</g>
				</g>
			</g>
		</g>
		<g>
			<g>
				<path style="fill:#1F0907;" d="M579.803,283.389c0,0,4.989,6.304,8.996,21.868c0.693,2.693-0.962,5.433-3.671,6.062
					l-25.375,5.889c-3.339,0.775-6.555-1.979-6.123-5.379c0.464-3.644,0-8.478-0.963-14.661L579.803,283.389z"/>
				<g>
					<path style="fill:#39405F;" d="M572.671,301.915c0,0,5.937-0.065,7.348,6.516C580.019,308.431,573.167,305.901,572.671,301.915
						z"/>
					<path style="fill:#39405F;" d="M572.619,302.513c0,0,3.828-4.539,9.733-1.31C582.352,301.203,575.962,304.74,572.619,302.513z"
						/>
				</g>
				<path style="fill:#1F0907;" d="M565.089,277.738c0,0-15.524,1.646-13.38,14.528l1.598,8.804l15.525-0.058L565.089,277.738z"/>
				<path style="fill:#1F0907;" d="M582.709,289.703c1.519,7.838-5.364,8.939-13.576,10.531c-8.212,1.592-14.643,3.072-16.163-4.766
					c-1.519-7.838,3.907-16.138,12.119-17.731C573.302,276.146,581.19,281.865,582.709,289.703z"/>
				<g>
					<path style="fill:#B96462;" d="M560.008,300.342c-0.222,2.153-2.148,3.719-4.301,3.497c-2.153-0.222-3.719-2.148-3.497-4.301
						c0.222-2.153,2.148-3.719,4.301-3.497C558.665,296.263,560.23,298.189,560.008,300.342z"/>
				</g>
				<polygon style="fill:#CB7E78;" points="566.495,307.246 570.29,324.879 581.276,321.384 571.966,297.814 				"/>
				<path style="fill:#CB7E78;" d="M555.662,285.676c-0.769,1.013-1.924,3.654-1.94,4.943c-0.045,3.822,0.072,9.579,1.985,13.219
					c2.487,4.733,6.464,8.3,12.513,5.7c0,0,7.374-2.403,7.14-12.835C574.987,280.084,562.244,277.003,555.662,285.676z"/>
				<g>
					
						<polyline style="fill:none;stroke:#1D0006;stroke-width:0.3086;stroke-linecap:round;stroke-linejoin:round;stroke-miterlimit:10;" points="
						559.374,299.182 559.061,301.754 560.842,302.158 					"/>
					<path style="fill:#210907;" d="M564.885,296.015c0.119,0.514-0.201,1.028-0.715,1.148c-0.514,0.119-1.028-0.201-1.148-0.715
						c-0.119-0.514,0.201-1.028,0.715-1.147C564.252,295.181,564.766,295.501,564.885,296.015z"/>
					<path style="fill:#210907;" d="M557.347,297.427c0.111,0.477-0.186,0.953-0.663,1.064c-0.477,0.111-0.953-0.186-1.064-0.663
						c-0.111-0.477,0.186-0.954,0.663-1.064C556.76,296.652,557.236,296.949,557.347,297.427z"/>
					<path style="fill:#210907;" d="M557.409,294.468c0,0,0.216,0.875-1.132,0.822c-1.023-0.04-1.672-0.078-2.264,0.015
						c-0.336,0.053-0.693-0.095-0.846-0.35l0,0c-0.123-0.206-0.089-0.439,0.094-0.594c0.371-0.313,1.13-0.769,2.375-0.733
						C557.235,293.675,557.409,294.468,557.409,294.468z"/>
					<path style="fill:#210907;" d="M561.616,293.359c0,0,0.021,0.929,1.62,0.263c1.214-0.506,2.78-0.89,3.52-1.072
						c0.42-0.103,0.801-0.407,0.902-0.718l0,0c0.082-0.251-0.033-0.457-0.302-0.52c-0.545-0.128-2.401-0.161-3.883,0.441
						C561.571,292.527,561.616,293.359,561.616,293.359z"/>
					<g>
						<path style="fill:none;stroke:#FFFFFF;stroke-width:0.641;stroke-miterlimit:10;" d="M567.398,301.714"/>
						<path style="fill:none;stroke:#FFFFFF;stroke-width:0.641;stroke-miterlimit:10;" d="M573.904,294.698"/>
					</g>
				</g>
				<polygon style="fill:#1F0907;" points="571.773,286.684 572.553,296.975 580.315,287.915 				"/>
				<path style="fill:#1F0907;" d="M557.493,282.635c0,0,7.447,8.077,18.797,9.05c0,0,4.284-1.233-1.817-7.827
					C568.374,277.264,557.493,282.635,557.493,282.635z"/>
				<g>
					<g>
						<path style="fill:#CB7E78;" d="M580.806,297.319c-0.24,2.33-2.324,4.023-4.653,3.783c-2.33-0.24-4.023-2.324-3.783-4.653
							c0.24-2.33,2.324-4.023,4.653-3.783S581.046,294.989,580.806,297.319z"/>
						
							<path style="fill:none;stroke:#1D0006;stroke-width:0.3086;stroke-linecap:round;stroke-linejoin:round;stroke-miterlimit:10;" d="
							M577.943,295.559c0,0-3.183-0.417-3.143,3.002"/>
					</g>
				</g>
				<g>
					<path style="fill:#39405F;" d="M576.094,301.353l-1.079-0.53l-15.953-0.152l-3.804,2.195c0,0-0.223,7.329,9.283,11.837
						C564.541,314.703,574.8,310.965,576.094,301.353z"/>
				</g>
			</g>
			<g>
				<g>
					<g>
						<g>
							<polygon style="fill:#101010;" points="616.805,415.804 620.477,428.653 637.917,446.652 627.04,410.241 							"/>
							<g>
								<polygon style="fill:#FFFFFF;" points="631.811,408.74 627.04,410.241 637.917,446.652 642.689,445.151 								"/>
							</g>
						</g>
						<polygon style="fill:#CB7E78;" points="602.699,433.03 598.956,419.934 616.805,415.804 620.548,428.9 						"/>
					</g>
					<g>
						<g>
							<path style="fill:#1F0C07;" d="M572.165,373.306c-0.42,1.231-8.861,43.82-11.913,59.877
								c-1.359,7.15,4.489,13.618,11.74,12.986l42.292-10.279l-5.669-19.764l-20.642,3.782l10.834-30.716L572.165,373.306z"/>
						</g>
					</g>
				</g>
				<g>
					<g>
						<g>
							<polygon style="fill:#101010;" points="539.513,429.488 526.152,429.257 503.852,440.694 541.852,440.9 							"/>
							<g>
								<polygon style="fill:#FFFFFF;" points="541.898,445.902 541.852,440.9 503.852,440.694 503.897,445.697 								"/>
							</g>
						</g>
						<polygon style="fill:#CB7E78;" points="523.155,410.38 536.773,410.616 539.513,429.488 525.895,429.253 						"/>
					</g>
					<g>
						<g>
							<path style="fill:#1F0C07;" d="M605.306,368.726c0,0-47.398-7.388-76.576-12.361c-9.116-1.554-17.041,6.341-15.527,15.464
								l9.972,50.025h24.415l-4.815-38.646l41.327,12.234c16.597,3.062,23.84-9.496,22.263-19.797L605.306,368.726z"/>
							<path style="fill:none;stroke:#52434D;stroke-width:0.798;stroke-miterlimit:10;" d="M547.381,417.798"/>
							<path style="fill:none;stroke:#52434D;stroke-width:0.798;stroke-miterlimit:10;" d="M521.732,417.798"/>
						</g>
					</g>
				</g>
			</g>
			<g>
				<g>
					<g>
						<path style="fill:#CB7E78;" d="M526.223,313.923c-1.763-1.979-3.772-3.724-5.977-5.192l-4.982-3.318
							c-1.092-0.813-2.377-1.326-3.728-1.491l-11.087-0.051c-0.845-0.103-1.604,0.524-1.662,1.374
							c-0.049,0.715,0.42,1.362,1.114,1.54l9.328,0.896l2.488,1.929c-0.743-0.61-2.109-0.469-2.554,0.383
							c-0.312,0.598-0.289,1.488,0.198,1.953l6.933,5.684c1.449,1.386,3.522,1.905,5.453,1.366l3.474,5.538l6.393-4.558
							L526.223,313.923z"/>
						<path style="fill:#39405F;" d="M534.719,349.157l-14.699-24.624l11.523-9.83l19.169,25.404
							c2.683,4.892,0.423,11.028-4.794,13.009l0,0C541.72,354.712,536.983,353.037,534.719,349.157z"/>
					</g>
					<g>
						<path style="fill:#39405F;" d="M539.303,336.651l42.854-18.329l7.867,18.052l-43.603,17.219
							c-5.173,2.093-11.001-0.869-12.359-6.281l0,0C532.968,342.954,535.185,338.446,539.303,336.651z"/>
						<polygon style="fill:#1D1F30;" points="558.263,348.916 570.812,343.96 565.664,331.726 						"/>
					</g>
				</g>
				<g>
					<g>
						<path style="fill:#39405F;" d="M609.532,358.572l-25.206-27.044c-3.637-3.903-3.443-10.009,0.435-13.673l0,0
							c3.993-3.773,10.318-3.483,13.949,0.639l24.345,27.635c3.724,4.156,2.914,10.644-1.717,13.757l0,0
							C617.61,362.393,612.617,361.837,609.532,358.572z"/>
					</g>
					<g>
						<g>
							<g>
								<path style="fill:#FFFFFF;" d="M653.495,410.38h-75.5c-5.664,0-10.255-4.591-10.255-10.255v0
									c0-5.664,4.591-10.255,10.255-10.255h75.5c5.664,0,10.255,4.591,10.255,10.255v0
									C663.75,405.789,659.159,410.38,653.495,410.38z"/>
								<g>
									<g>
										<path d="M596.054,396.515l-2.432,3.2v0.052l3.866-0.513v1.741l-3.866-0.461v0.052l2.458,3.071l-1.614,0.924l-1.536-3.586
											h-0.051l-1.664,3.611l-1.459-0.922l2.432-3.125v-0.05l-3.789,0.486v-1.741l3.764,0.486v-0.05l-2.407-3.125l1.562-0.894
											l1.588,3.559h0.051l1.562-3.586L596.054,396.515z"/>
									</g>
									<g>
										<path d="M612.254,396.515l-2.432,3.2v0.052l3.866-0.513v1.741l-3.866-0.461v0.052l2.458,3.071l-1.614,0.924l-1.537-3.586
											h-0.051l-1.664,3.611l-1.459-0.922l2.432-3.125v-0.05l-3.789,0.486v-1.741l3.764,0.486v-0.05l-2.407-3.125l1.562-0.894
											l1.588,3.559h0.051l1.561-3.586L612.254,396.515z"/>
									</g>
									<g>
										<path d="M628.454,396.515l-2.432,3.2v0.052l3.866-0.513v1.741l-3.866-0.461v0.052l2.458,3.071l-1.614,0.924l-1.537-3.586
											h-0.051l-1.664,3.611l-1.459-0.922l2.432-3.125v-0.05l-3.789,0.486v-1.741l3.764,0.486v-0.05l-2.407-3.125l1.562-0.894
											l1.588,3.559h0.051l1.562-3.586L628.454,396.515z"/>
									</g>
									<g>
										<path d="M644.654,396.515l-2.432,3.2v0.052l3.866-0.513v1.741l-3.866-0.461v0.052l2.458,3.071l-1.614,0.924l-1.536-3.586
											h-0.051l-1.664,3.611l-1.459-0.922l2.432-3.125v-0.05l-3.789,0.486v-1.741l3.764,0.486v-0.05l-2.407-3.125l1.561-0.894
											l1.588,3.559h0.051l1.562-3.586L644.654,396.515z"/>
									</g>
								</g>
							</g>
							<g>
								<path style="fill:#CB7E78;" d="M609.953,389.045c-0.255,0.786,0.025,1.647,0.693,2.133c0.909,0.662,2.19,0.4,2.766-0.565
									l0.472-0.791c1.031,0.572,2.448,2.158,0.944,7.41c-0.253,0.883,0.258,1.804,1.141,2.057c0.69,0.198,1.403-0.071,1.803-0.619
									c0.018-0.025,0.032-0.055,0.049-0.081c0.16,0.52,0.569,0.951,1.13,1.112c0.69,0.197,1.403-0.071,1.803-0.619
									c0.053-0.072,0.099-0.15,0.139-0.232c0.192,0.191,0.428,0.342,0.707,0.422c0.69,0.197,1.403-0.071,1.803-0.619
									c0.112-0.154,0.199-0.329,0.254-0.522c0.02-0.069,0.034-0.135,0.053-0.203c0.029,0.01,0.054,0.025,0.083,0.033
									c0.69,0.198,1.403-0.071,1.803-0.619c0.112-0.154,0.199-0.329,0.254-0.522c0.415-1.45,0.653-2.787,0.728-4.008l0.003,0.001
									c0,0,0.001-0.023,0.001-0.057c0.033-0.576,0.025-1.123-0.018-1.645c-0.092-2.484-0.534-7.194-2.434-10.774l-12.257,2.775
									L609.953,389.045z"/>
							</g>
							<polygon style="fill:#FFFFFF;" points="613.885,389.822 608.462,389.87 608.875,392.818 613.885,392.818 							"/>
						</g>
						<path style="fill:#39405F;" d="M625.328,351.193l1.086,30.328l-17.608,1.966l-1.785-30.702
							c-0.41-5.565,4.194-10.208,9.762-9.845l0,0C621.266,343.234,624.88,346.724,625.328,351.193z"/>
					</g>
				</g>
				<g>
					<g>
						<path style="fill:#39405F;" d="M572.292,322.022L572.292,322.022l-7.467,16.305l7.485,25.182l32.995,5.217l-7.666-39.634
							c-0.844-8.438-10.665-12.809-10.665-12.809L572.292,322.022z"/>
					</g>
					<polygon style="fill:#1D1F30;" points="601.721,350.19 593.548,341.422 604.332,363.693 					"/>
					<path style="fill:#39405F;" d="M567.334,328.59c0,0-8.896,13.251,0.827,22.44c7.537,7.123,12.154-4.263,12.154-4.263
						l-2.562-8.439L567.334,328.59z"/>
					<path style="fill:#39405F;" d="M568.2,328.313l-0.85-6.464c-0.121-1.005,0.449-1.965,1.389-2.339l10.42-4.148
						c0.848-0.338,1.817-0.124,2.445,0.539l3.99,4.215L568.2,328.313z"/>
				</g>
			</g>
		</g>
		<g>
			<g>
				<g>
					<g>
						<g>
							<polygon style="fill:#101010;" points="651.592,161.597 658.903,172.671 680.789,184.517 659.626,153.276 							"/>
							<g>
								<polygon style="fill:#FFFFFF;" points="663.698,150.431 659.626,153.276 680.789,184.517 684.86,181.671 								"/>
							</g>
						</g>
						<polygon style="fill:#EBAE89;" points="644.566,184.91 637.115,173.623 651.592,161.597 659.043,172.884 						"/>
					</g>
					<path style="fill:#1F0C07;" d="M563.576,175.909l4.031-3.729l46.083,16.368l27.138-21.871l12.911,15.338L626.862,204.5
						c-8.577,6.948-10.184,7.045-17.219,5.93c-0.052-0.008-11.325-6.253-11.325-6.253l-11.672-2.387L563.576,175.909z"/>
				</g>
				<g>
					<g>
						<g>
							<polygon style="fill:#101010;" points="666.985,203.694 668.034,216.922 681.47,237.869 678.04,200.292 							"/>
							<g>
								<polygon style="fill:#FFFFFF;" points="682.979,199.768 678.04,200.292 681.47,237.869 686.409,237.346 								"/>
							</g>
						</g>
						<polygon style="fill:#EBAE89;" points="649.568,220.708 648.499,207.226 666.985,203.694 668.054,217.176 						"/>
					</g>
					<g>
						<path style="fill:#1F0C07;" d="M566.547,167.959l-8.635,25.157l40.81,32.835c0.038,0.026,0.076,0.051,0.114,0.076
							c5.218,3.505,11.442,5.195,17.72,4.867l42.487-7.823l-1.611-20.342l-41.718,6.23l-30.32-24.952
							C585.394,184.008,577.954,167.868,566.547,167.959z"/>
					</g>
				</g>
			</g>
			<g>
				<path style="fill:#1F0C07;" d="M490.378,120.425c0,0-11.301-1.35-12.09,10.805c-0.37,5.692,6.116,7.684,12.499,5.714
					L490.378,120.425z"/>
				<polygon style="fill:#EBAE89;" points="505.174,147.279 516.633,156.278 523.511,145.441 506.308,135.73 				"/>
				<path style="fill:#EBAE89;" d="M486.259,127.651c0,0-4.352,4.501-0.003,10.945c0,0,1.612,2.486,6.277,9.12
					c2.465,3.505,7.907,6.375,12.06,2.907c2.014-1.682,3.387-4.533,4.261-7.613l0.885-4.816
					c1.153-12.456-13.865-19.907-22.838-11.191C486.688,127.211,486.473,127.427,486.259,127.651z"/>
				<path style="fill:#EBAE89;" d="M490.103,143.101l0.716,5.256c0.015,0.477,0.473,0.918,0.932,0.647l2.537-1.272L490.103,143.101z
					"/>
				<path style="fill:#1F0C07;" d="M502.612,136.007c0,0-4.603,0.199-6.532-5.725c0,0-8.964,5.801-13.363,1.156
					c0,0-0.893-8.934,9.908-11.75c10.801-2.816,12.85,6.872,12.85,6.872L502.612,136.007z"/>
				<path style="fill:#1F0C07;" d="M506.713,135.386c0,0-2.22,4.165,4.388,3.051c0,0-0.276-1.427,0.176-3.586
					c0.452-2.159,2.363-24.264-20.899-14.425l6.43,2.819L506.713,135.386z"/>
				<g>
					<path style="fill:#EBAE89;" d="M507.913,131.008c1.424,1.629,1.258,4.104-0.371,5.528c-1.629,1.424-4.104,1.258-5.528-0.371
						c-1.424-1.629-1.258-4.104,0.371-5.528C504.014,129.213,506.489,129.379,507.913,131.008z"/>
					
						<path style="fill:none;stroke:#000000;stroke-width:0.3497;stroke-linecap:round;stroke-linejoin:round;stroke-miterlimit:10;" d="
						M504.636,135.941c0,0-1.092-1.739,0.441-3.78"/>
				</g>
				<g>
					<path style="fill:#1F0C07;" d="M492.752,141.372c0.237,0.394,0.109,0.906-0.285,1.143c-0.394,0.237-0.906,0.109-1.143-0.285
						c-0.237-0.394-0.109-0.906,0.285-1.143C492.003,140.85,492.515,140.978,492.752,141.372z"/>
					<path style="fill:#1F0C07;" d="M487.343,140.917c0,0,1.074,0.727,1.751-0.725c0.513-1.102,1.481-2.311,1.937-2.882
						c0.259-0.324,0.255-0.785-0.007-1.091l0,0c-0.212-0.247-0.549-0.345-0.862-0.24c-0.634,0.213-2.336,1.256-2.978,2.59
						C486.357,140.282,487.343,140.917,487.343,140.917z"/>
				</g>
				<g>
					<path style="fill:#39405F;" d="M511.392,134.038l-20.782,12.786c0,0-2.557,6.354,12.136,10.627l8.355-19.014L511.392,134.038z"
						/>
					<g>
						<path style="fill:#39405F;" d="M509.357,136.745c0,0,5.29-2.071,8.784,3.337C518.141,140.083,511.152,140.143,509.357,136.745
							z"/>
						<path style="fill:#39405F;" d="M510.906,136.737c0,0,0.101-5.68,6.433-6.849C517.339,129.888,514.732,136.372,510.906,136.737
							z"/>
					</g>
				</g>
			</g>
			<g>
				
					<line style="fill:none;stroke:#1F0C07;stroke-width:0.9852;stroke-linecap:round;stroke-linejoin:round;stroke-miterlimit:10;" x1="562.429" y1="1.659" x2="562.429" y2="167.959"/>
				<g>
					<g>
						<g>
							<polygon style="fill:#EBAE89;" points="513.841,198.343 479.889,204.888 478.305,197.897 514.466,183.531 							"/>
							<g>
								<path style="fill:#EBAE89;" d="M478.983,197.273c0,0-13.398-1.529-12.079,5.214c1.32,6.743,7.208,14.571,18.11-0.252
									L478.983,197.273z"/>
								<path style="fill:#EBAE89;" d="M470.62,198.769c0,0-1.853-6.6,10.548-1.336l0.692,4.059l-3.388,2.412L470.62,198.769z"/>
							</g>
						</g>
						<g>
							<g>
								<path style="fill:#EBAE89;" d="M535.112,160.169c0,0-9.419,22.533-17.138,35.417c-1.329,2.218-3.969,3.274-6.478,2.647h0
									c-3.408-0.852-5.325-4.47-4.116-7.769l13.911-38.405L535.112,160.169z"/>
							</g>
							<path style="fill:#39405F;" d="M529.862,144.424c0,0,16.057,12.842,4.445,33.766l-23.578-4.937
								C510.729,173.253,515.718,136.933,529.862,144.424z"/>
						</g>
					</g>
					<g>
						<g>
							<path style="fill:#39405F;" d="M517.214,156.645l4.856-11.881c0,0,10.302-7.573,28.474,6.155
								c15.309,11.566,23.033,19.061,23.033,19.061l-14.982,23.827C517.339,165.668,517.214,156.645,517.214,156.645z"/>
						</g>
						<polygon style="fill:#1D1F30;" points="533.821,175.543 541.502,181.511 536.607,158.727 						"/>
						
							<path style="fill:none;stroke:#1F0C07;stroke-width:0.9852;stroke-linecap:round;stroke-linejoin:round;stroke-miterlimit:10;" d="
							M563.03,160.337c0,0,4.515,12.917-7.133,31.618"/>
					</g>
				</g>
			</g>
		</g>
		
			<line style="fill:none;stroke:#39405F;stroke-width:0.9852;stroke-miterlimit:10;" x1="57.019" y1="445.907" x2="688.902" y2="445.907"/>
	</g>
</g>
</svg>
